<?xml version="1.0" encoding="utf-8"?>
<!-- Generator: Adobe Illustrator 15.1.0, SVG Export Plug-In . SVG Version: 6.00 Build 0)  -->
<!DOCTYPE svg PUBLIC "-//W3C//DTD SVG 1.1//EN" "http://www.w3.org/Graphics/SVG/1.1/DTD/svg11.dtd">
<svg version="1.1" id="Layer_1" xmlns="http://www.w3.org/2000/svg" xmlns:xlink="http://www.w3.org/1999/xlink" x="0px" y="0px"
	 width="250px" height="250px" viewBox="0 0 250 250" enable-background="new 0 0 250 250" xml:space="preserve">
<g>
	<path fill="#2F7AF9" d="M212.024,93.02L70.936,11.617c-30.496-17.619-55.519-3.212-55.519,32v162.831
		c0,31.45,20.272,46.224,45.611,36.494V130.563c0-15.556,10.181-22.543,22.806-22.543c12.625,0,22.805,6.987,22.805,22.543v86.588
		l104.748-60.104C241.888,139.442,242.522,110.627,212.024,93.02z M84.689,98.325c-12.614,0-23.438-5.859-23.438-20.736
		c0-14.877,10.824-20.736,23.438-20.736c12.626,0,23.445,5.859,23.445,20.736C108.134,92.465,97.315,98.325,84.689,98.325z"/>
</g>
</svg>
