<svg xmlns="http://www.w3.org/2000/svg" viewBox="0 0 52.17 45.56"><defs><style>.cls-1{fill:#fff;}</style></defs><g id="레이어_2" data-name="레이어 2"><g id="Layer_9" data-name="Layer 9"><path class="cls-1" d="M45.06,19.27h0A9.85,9.85,0,0,1,36,32.66H16.29V26l-13,9.76,13,9.76V39.11H36A16.25,16.25,0,0,0,52.17,22.82a18.47,18.47,0,0,0-1.73-7.69Z"/><path class="cls-1" d="M48.86,9.76,36,0V6.45H16.29A16.28,16.28,0,0,0,0,22.82a17.16,17.16,0,0,0,1.82,7.61l5.37-4a11.52,11.52,0,0,1-.74-3.64,9.93,9.93,0,0,1,9.84-9.92H36v6.61Z"/></g></g></svg>