<svg xmlns="http://www.w3.org/2000/svg" viewBox="0 0 52.17 47.11"><defs><style>.cls-1{fill:#fff;}</style></defs><g id="레이어_2" data-name="레이어 2"><g id="Layer_9" data-name="Layer 9"><path class="cls-1" d="M45.06,20.82h0A9.85,9.85,0,0,1,36,34.21H16.29V27.6l-13,9.76,13,9.75V40.66H36A16.24,16.24,0,0,0,52.17,24.38a18.44,18.44,0,0,0-1.73-7.69Z"/><path class="cls-1" d="M48.86,11.31,36,1.56V8H16.29A16.28,16.28,0,0,0,0,24.38,17.12,17.12,0,0,0,1.82,32l5.37-4a11.46,11.46,0,0,1-.74-3.63,9.94,9.94,0,0,1,9.84-9.93H36v6.62Z"/><rect class="cls-1" x="-4.57" y="21.33" width="62" height="4" transform="translate(24.24 -11.86) rotate(45)"/></g></g></svg>